<svg xmlns="http://www.w3.org/2000/svg" viewBox="0 0 750 500"><g id="freepik--background-simple--inject-2"><path d="M528.39,55.32l-1.71,1.9c-14.44,16-19.25,38.63-11.8,58.68a55,55,0,0,0,3.43,7.49c9.57,17.39,28.49,29.32,48.5,30.6,11.77.75,24.28-1.82,34.94,3.13,13.86,6.44,19.18,22.86,23.1,37.53s9.29,31.08,23.19,37.46c8.7,4,19.05,3,28.11-.28,24-8.64,40.65-32.18,45-57s-2.36-50.58-14.25-72.78c-16.64-31.1-44.46-57.07-78.47-67.47S554.38,31,528.39,55.32Z" style="fill:#f5f5f5"></path><path d="M237.55,54.83l1.72,1.9c14.43,16,19.24,38.63,11.8,58.68a56.21,56.21,0,0,1-3.43,7.49c-9.58,17.39-28.5,29.32-48.51,30.6-11.77.75-24.28-1.82-34.93,3.13-13.87,6.44-19.19,22.86-23.11,37.53s-9.29,31.08-23.18,37.46c-8.7,4-19.06,3-28.11-.28-24-8.64-40.66-32.18-45-57s2.37-50.58,14.25-72.78c16.65-31.1,44.46-57.07,78.47-67.47S211.56,30.48,237.55,54.83Z" style="fill:#f5f5f5"></path><circle cx="225.24" cy="437" r="29.78" transform="translate(-241.96 590.03) rotate(-80.87)" style="fill:#f5f5f5"></circle><circle cx="525.44" cy="407.22" r="29.78" style="fill:#f5f5f5"></circle></g><g id="freepik--speech-bubble-3--inject-2"><path d="M627.43,218.28l-2.29-7.67a26.65,26.65,0,1,0-6.39,7.12h0Z" style="fill:#fff"></path><path d="M627.43,218.28h-.54l-1.64-.08-6.52-.34a.11.11,0,0,1-.11-.12.11.11,0,0,1,0-.06h0l.17.16a26.72,26.72,0,0,1-12,5.31,26.44,26.44,0,0,1-8.57,0,26.75,26.75,0,0,1-9.15-3.18,26.86,26.86,0,0,1-6.91-41,26.59,26.59,0,0,1,10.64-7.43,27.5,27.5,0,0,1,12.29-1.66,26.74,26.74,0,0,1,11.06,3.68,26.89,26.89,0,0,1,13.06,24.65,26.68,26.68,0,0,1-4,12.47v-.09c.71,2.5,1.27,4.43,1.65,5.76.17.62.31,1.11.41,1.46a4,4,0,0,1,.12.48l-.17-.51c-.11-.36-.27-.85-.47-1.48-.4-1.31-1-3.2-1.76-5.65a.1.1,0,0,1,0-.09A26.53,26.53,0,0,0,615.91,174a26.28,26.28,0,0,0-10.86-3.58A26.73,26.73,0,0,0,593,172a26.12,26.12,0,0,0-10.42,7.28,26.41,26.41,0,0,0,15.71,43.44,26.05,26.05,0,0,0,8.45,0,26.61,26.61,0,0,0,11.93-5.15.12.12,0,0,1,.17.17h0l-.09-.19,6.43.47,1.68.14Z" style="fill:#263238"></path><path d="M594.92,196.64a2.71,2.71,0,1,1-2.71-2.7A2.71,2.71,0,0,1,594.92,196.64Z" style="fill:#263238"></path><path d="M605.76,196.64a2.71,2.71,0,1,1-2.71-2.7A2.71,2.71,0,0,1,605.76,196.64Z" style="fill:#263238"></path><path d="M616.57,195.29a2.71,2.71,0,1,1-3.7-1A2.72,2.72,0,0,1,616.57,195.29Z" style="fill:#263238"></path></g><g id="freepik--speech-bubble-2--inject-2"><path d="M335.58,126.59l8,.38a26.69,26.69,0,1,0-4.6-8.39h0Z" style="fill:#fff"></path><path d="M335.58,126.59l.19-.5.62-1.53c.57-1.39,1.4-3.41,2.47-6a.12.12,0,0,1,.15-.06.15.15,0,0,1,.06,0v0l-.21.1a26.43,26.43,0,0,1,1.78-21.2,26.53,26.53,0,0,1,6-7.57,26.84,26.84,0,0,1,41,7.05,26.48,26.48,0,0,1,3.48,12.5,27.25,27.25,0,0,1-2.5,12.14,26.79,26.79,0,0,1-45.16,5.5l.08,0-6-.35-1.52-.09a4.05,4.05,0,0,1-.49,0h.54l1.55.05,5.91.21a.12.12,0,0,1,.08,0,26.54,26.54,0,0,0,44.53-5.58,26.93,26.93,0,0,0,2.43-11.91,26.08,26.08,0,0,0-3.42-12.25,26.44,26.44,0,0,0-40.22-7,26.1,26.1,0,0,0-6,7.43,25.82,25.82,0,0,0-2.82,8,26.64,26.64,0,0,0,.9,13,.12.12,0,0,1-.07.15.11.11,0,0,1-.14,0h0l.21,0c-1.12,2.57-2,4.55-2.58,5.91l-.67,1.54C335.67,126.41,335.58,126.59,335.58,126.59Z" style="fill:#263238"></path><path d="M356.83,110.16a2.71,2.71,0,1,1-2.71-2.71A2.71,2.71,0,0,1,356.83,110.16Z" style="fill:#263238"></path><path d="M367.67,110.16a2.71,2.71,0,1,1-2.71-2.71A2.71,2.71,0,0,1,367.67,110.16Z" style="fill:#263238"></path><path d="M378.48,108.8a2.71,2.71,0,1,1-3.7-1A2.72,2.72,0,0,1,378.48,108.8Z" style="fill:#263238"></path></g><g id="freepik--character-4--inject-2"><path d="M446.08,190l4.1-28.59c1.86-22.29,1.44-49.39,4.76-56.46,6.13-13.06,24.66-13.37,24.66-13.37,24.61-.52,28,18.54,29.64,35.83.27,2.93,1.25,8.17,2.52,14.23,3,12.63,6.91,25.65,15.55,34.57A22.34,22.34,0,0,1,533.25,189c.55,4.71-2.21,10.21-6.92,10.75a10.86,10.86,0,0,1-2.58,17c-4,2.27-9,1.73-13.62,1s-9.31-1.78-12.78-4.83-5.08-7.67-6.26-12.15a105.11,105.11,0,0,1-3-16.42Z" style="fill:#263238"></path><path d="M476,98.33,477.6,97l16.24,7.52a4.63,4.63,0,0,1,4.14,4.7l-5.22,55.36c-.17,3.67,1.28,5.44-1.08,8.25l-16.2,18.7c-5.66,6.74-4.39-8.67-8.2-16.6-.27-.56,1.11-2.51,1-2.89a10.8,10.8,0,0,1-.19-1.22c-.27-4.37-.11-8.14-.11-8.14,0-4.79,0-6.75-.06-6.71s-10.09-1.68-12.17-14.85c-1-6.55-.33-15.45.49-24.21C457.43,104.74,466.23,97.83,476,98.33Z" style="fill:#ae7461"></path><path d="M475.55,126.32a1.68,1.68,0,0,0,1.63,1.7,1.62,1.62,0,0,0,1.74-1.52,1.7,1.7,0,0,0-1.63-1.71A1.62,1.62,0,0,0,475.55,126.32Z" style="fill:#263238"></path><path d="M458.81,125.44a1.69,1.69,0,0,0,1.63,1.7,1.61,1.61,0,0,0,1.74-1.52,1.67,1.67,0,0,0-1.62-1.7A1.62,1.62,0,0,0,458.81,125.44Z" style="fill:#263238"></path><path d="M457.84,120.42c.21.22,1.49-.73,3.31-.72s3.15.91,3.35.69-.12-.5-.7-.92a4.68,4.68,0,0,0-2.68-.83,4.53,4.53,0,0,0-2.63.85C457.93,119.92,457.74,120.32,457.84,120.42Z" style="fill:#263238"></path><path d="M476.23,121.54c.23.19,1.41-.88,3.22-1.06s3.23.59,3.4.35-.17-.49-.79-.85a4.63,4.63,0,0,0-2.75-.55,4.52,4.52,0,0,0-2.53,1.12C476.27,121,476.12,121.45,476.23,121.54Z" style="fill:#263238"></path><path d="M469.23,134.41a12.65,12.65,0,0,0-3-.53c-.47,0-.9-.14-1-.46a2.31,2.31,0,0,1,.31-1.37c.43-1.13.89-2.3,1.37-3.54,1.91-5,3.29-9.17,3.09-9.24s-1.92,3.94-3.82,9l-1.32,3.56a2.64,2.64,0,0,0-.24,1.82,1.14,1.14,0,0,0,.76.68,3.55,3.55,0,0,0,.79.11A11.26,11.26,0,0,0,469.23,134.41Z" style="fill:#263238"></path><path d="M468,155.92a33.48,33.48,0,0,0,17.64-4.69s-4.44,9.11-17.62,7.87Z" style="fill:#6f4439"></path><path d="M471.51,137.83c.66-.87,2.6-2.21,3.74-2.09A2.72,2.72,0,0,1,477,137c.48.64,0,2.41-.46,3a2.24,2.24,0,0,1-2.31.95c-.87-.24-2-1.53-2.7-2.1a1.87,1.87,0,0,1-.52-.53c-.12-.22.31-.37.46-.55" style="fill:#6f4439"></path><path d="M474.85,114.38c.23.47,2,.06,4.16.1s3.92.44,4.16,0c.11-.22-.24-.66-1-1.06a7.2,7.2,0,0,0-6.34,0C475.11,113.73,474.75,114.16,474.85,114.38Z" style="fill:#263238"></path><path d="M458.5,112.64c.32.41,1.57,0,3.08,0s2.78.28,3.07-.16c.13-.21-.07-.62-.63-1a4.45,4.45,0,0,0-5,.15C458.53,112,458.36,112.44,458.5,112.64Z" style="fill:#263238"></path><path d="M496.48,132.2s-9.43,2.42-13.53-20.76c-1.4-7.93-8.34-14.64-8.34-14.64l3-.74s18,6.09,18.35,6.33,4.14,9.71,4.14,9.71Z" style="fill:#263238"></path><path d="M494.24,131.24c0-1,1.13-3.3,2.1-3.45,2.59-.4,7.25-.19,7.29,6.38.06,9-9,7.18-9,6.92S494.23,134.62,494.24,131.24Z" style="fill:#ae7461"></path><path d="M497.36,137.68s.16.1.43.22a1.53,1.53,0,0,0,1.17,0c.94-.35,1.73-1.86,1.77-3.48a5.19,5.19,0,0,0-.46-2.24,1.76,1.76,0,0,0-1.18-1.19.79.79,0,0,0-.92.43c-.12.25-.06.43-.11.45s-.19-.15-.12-.52a1,1,0,0,1,.35-.57,1.13,1.13,0,0,1,.86-.23,2.18,2.18,0,0,1,1.64,1.38,5.32,5.32,0,0,1,.56,2.5c0,1.81-1,3.51-2.26,3.89a1.66,1.66,0,0,1-1.43-.23C497.38,137.89,497.33,137.69,497.36,137.68Z" style="fill:#6f4439"></path><path d="M490.4,127.5a11.25,11.25,0,0,1-1.32-.34,7.94,7.94,0,0,1-3.1-2,10.75,10.75,0,0,1-1.56-2,14.8,14.8,0,0,1-1.22-2.69,55.1,55.1,0,0,1-1.6-6.6,67.88,67.88,0,0,0-1.73-6.61,38.62,38.62,0,0,0-2.08-5.18,28,28,0,0,0-1.89-3.25c-.25-.37-.47-.64-.6-.83a1.9,1.9,0,0,0-.23-.27,1.91,1.91,0,0,0,.19.3c.12.2.33.48.56.85a31.47,31.47,0,0,1,1.82,3.28,39.71,39.71,0,0,1,2,5.17c.63,2,1.19,4.22,1.7,6.59a53.6,53.6,0,0,0,1.63,6.63,14.41,14.41,0,0,0,1.26,2.71,10.75,10.75,0,0,0,1.61,2,7.86,7.86,0,0,0,3.19,2A4.81,4.81,0,0,0,490.4,127.5Z" style="fill:#263238"></path><path d="M448.89,168.58s-13.81,12.54-10.61,28.55,3,49.48,3,49.48-1.37,13-3.23,27.15c-1.78,13.51-5.63,35.75-5.63,35.75l14.84,6.37s13-42.41,14.77-55.76c2.26-17.23-2.34-57.15-2.34-57.15Z" style="fill:#ae7461"></path><path d="M432.4,307.35l-30.64,5.94s-1.45,1.93,1.45,2.17,43.65,0,43.65,0Z" style="fill:#ae7461"></path><path d="M456.94,246.29c0,.15-2.95-.32-6.57-.55s-6.57-.16-6.58-.3a7,7,0,0,1,1.93-.23,43.92,43.92,0,0,1,4.68,0,43.35,43.35,0,0,1,4.65.56A7.3,7.3,0,0,1,456.94,246.29Z" style="fill:#6f4439"></path><path d="M557.91,318.66s37.17,2.67,55.27,1.51c11-.7,19.62-12.82,9.59-21.46-4.85-4.17-65.71-17.67-65.71-17.67C545.47,289.2,552.24,309.35,557.91,318.66Z" style="fill:#ae7461"></path><path d="M624.77,300.11c0,.12-8.09-2.48-18-5.83S588.92,288.12,589,288s8.09,2.48,18,5.83S624.81,300,624.77,300.11Z" style="fill:#6f4439"></path><path d="M579.44,247.12s33.87,16,48.62,26.54c8.94,6.4,9.88,21.26-3.21,23.28-6.32,1-65.11-19.76-65.11-19.76C554.22,264.12,569.7,252,579.44,247.12Z" style="fill:#ae7461"></path><path d="M531.08,234.2l3.3,3.06s11.86-6,30.83,2.15c11.54,5,40.18,19.27,40.18,19.27s-16.27,5.49-16,19.36S589.12,292,584.55,295s-21.41,1.4-23.12,12.39-2.29,11.95-2.29,11.95-48.46-1.56-62.73-7.84-19.48-41.53-19.48-41.53l-1.75-7.06Z" style="fill:#263238"></path><path d="M581.09,286.25a3.31,3.31,0,0,1-.72-.17l-2-.58-7.48-2.21-24.64-7.44A72.17,72.17,0,0,0,532.38,273a36.22,36.22,0,0,0-11.44.75,25.28,25.28,0,0,0-7.18,2.87c-.78.47-1.37.87-1.76,1.16a4.41,4.41,0,0,1-.61.42,4.77,4.77,0,0,1,.55-.49,17.82,17.82,0,0,1,1.72-1.26,24.51,24.51,0,0,1,7.2-3,35.8,35.8,0,0,1,11.56-.87,71.68,71.68,0,0,1,13.91,2.79c9.64,2.89,18.32,5.62,24.61,7.58l7.44,2.36,2,.67A3.75,3.75,0,0,1,581.09,286.25Z" style="fill:#455a64"></path><path d="M542.13,260.12a30.07,30.07,0,0,0-3,6,28.05,28.05,0,0,0-1,6.59,5.94,5.94,0,0,1-.2-2,15.75,15.75,0,0,1,.77-4.76,16.25,16.25,0,0,1,2.15-4.31A5.85,5.85,0,0,1,542.13,260.12Z" style="fill:#455a64"></path><path d="M465,240.76l10.77,22.11s41.65-11.34,48.24-19.15,8.79-11.1,8.79-11.1l-15.93-29.2-3.43-37.59L495.3,163.1c-9.65,4.91-23,6-26.78.47,0,0-10.81.07-18.62,4.43L442,189.12Z" style="fill:#5F8E4D"></path><path d="M437.9,219.44h21.31l-7.54-52.2s-11.77,4-13.77,16.24C436.19,194,437.9,219.44,437.9,219.44Z" style="fill:#5F8E4D"></path><path d="M448.18,186.65a3.23,3.23,0,0,1,.08.53c0,.41.09.92.14,1.55s.13,1.5.24,2.45.21,2,.39,3.22c.31,2.39.79,5.22,1.44,8.34s1.55,6.5,2.65,10,2.37,6.78,3.61,9.71,2.5,5.51,3.63,7.64c.54,1.08,1.09,2,1.54,2.86s.87,1.55,1.22,2.13l.77,1.35a2,2,0,0,1,.24.49,2.59,2.59,0,0,1-.32-.44l-.85-1.3c-.37-.56-.81-1.26-1.29-2.1s-1.06-1.76-1.61-2.83c-1.17-2.11-2.45-4.7-3.74-7.62s-2.54-6.22-3.66-9.74-2-6.93-2.63-10.06-1.08-6-1.34-8.38c-.16-1.2-.23-2.29-.32-3.25s-.13-1.78-.16-2.46,0-1.14,0-1.55A1.7,1.7,0,0,1,448.18,186.65Z" style="fill:#263238"></path><path d="M512.75,165.81a20.19,20.19,0,0,1,18.27,13c5,12.77,5.93,29.36,5.93,29.36l-26.88,5.71L513,191s-3.17-9.35-3.48-14.72C508.81,163.3,512.75,165.81,512.75,165.81Z" style="fill:#5F8E4D"></path><path d="M537,208.19a1.71,1.71,0,0,1-.48.15l-1.41.31-5.2,1.07-17.36,3.39-.25,0,0-.27c-.06-.43-.11-.9-.17-1.37L509.89,193c-.25-2.32-.45-4.22-.6-5.61-.06-.62-.1-1.13-.14-1.53a2.76,2.76,0,0,1,0-.54,2,2,0,0,1,.12.53c.06.4.13.9.22,1.51.19,1.39.45,3.28.76,5.6.6,4.78,1.41,11.29,2.3,18.47.06.47.12.94.17,1.38l-.29-.22,17.39-3.24,5.23-.92,1.42-.23Z" style="fill:#263238"></path><path d="M535.64,208.47,515.72,212l1.07,6.15-7.67-.68-15.62,7.33s13.05,14.13,21.17,18,21.24,5.64,22.94-8.57C538.76,224.59,535.64,208.47,535.64,208.47Z" style="fill:#ae7461"></path><path d="M532.19,227.93c-.06,0-.7-.82-1.89-2.07a25.18,25.18,0,0,0-5.23-4.16,24.87,24.87,0,0,0-6.16-2.6c-1.66-.45-2.73-.59-2.72-.67s.27,0,.76,0a15.11,15.11,0,0,1,2,.32,21.68,21.68,0,0,1,6.33,2.52,21.91,21.91,0,0,1,5.24,4.35,15,15,0,0,1,1.26,1.64C532.09,227.68,532.22,227.91,532.19,227.93Z" style="fill:#6f4439"></path><path d="M497.85,208.33s2.18-2.87,3.82-3.51A22.55,22.55,0,0,1,504,204s-.82-3,2.27-3.27a4.32,4.32,0,0,0,2.18,1,1.72,1.72,0,0,1,2,1.45c.28,1.18,1,4.45,0,6s-2.81,3.09-2,7.26c0,0-1.09,4.63-3.45,5.81a7.77,7.77,0,0,1-3.54,1.09s-2.18,2.64-4,2.27-2.63-.45-2.63-.45-1.45,2.25-4.63.49a3.56,3.56,0,0,1-3.54.24c-.85-.46-5-4.63-5.18-7.81s-.05-5.36.73-6.54c1.17-1.74,2.86-.16,2.86-.16s.41-3,1.59-4.2,2.09-1,2.09-1-.37-3.64,2.45-3.91,2.54,3.09,2.63,4.9L494,209S495.08,206.33,497.85,208.33Z" style="fill:#ae7461"></path><path d="M497.85,208.33c0,.06-.36-.24-1.08-.5a2.16,2.16,0,0,0-1.37-.05,2.41,2.41,0,0,0-1.32,1.28l-.24.51,0-.56c-.05-.78-.12-1.64-.15-2.61a7.43,7.43,0,0,0-.52-3c-.41-1-1.82-1.17-2.83-.62s-1.37,2-1.28,3.35l0,.29h-.33a3,3,0,0,0-2.35,1.64,10.74,10.74,0,0,0-1,3.34l-.09.53-.4-.36a1.62,1.62,0,0,0-2-.34,3.46,3.46,0,0,0-1,2.2,16.3,16.3,0,0,0-.15,2.73A12.86,12.86,0,0,0,482,219a13.58,13.58,0,0,0,3.05,4.94c.34.38.7.74,1.07,1.08a6.2,6.2,0,0,0,.56.48,2.31,2.31,0,0,0,.61.3,3.2,3.2,0,0,0,2.73-.41l.19-.12.17.1a4,4,0,0,0,2.84.53,2.55,2.55,0,0,0,1.34-.91l.14-.18.19,0,1.88.33c.3,0,.66.12.91.14a1.92,1.92,0,0,0,.78-.09,7,7,0,0,0,2.76-2.07l.1-.12h.18a7.37,7.37,0,0,0,2.51-.66,4.4,4.4,0,0,0,2.06-1.42,12.76,12.76,0,0,0,2.09-4.56v.13a7.68,7.68,0,0,1,.69-5.47c.44-.79,1-1.46,1.44-2.13a4.59,4.59,0,0,0,.4-2.25,14.46,14.46,0,0,0-.25-2.29,4.24,4.24,0,0,0-.63-2,1.35,1.35,0,0,0-.8-.39c-.3-.07-.67,0-1-.11a5.18,5.18,0,0,1-1.82-1l.17.05a2.31,2.31,0,0,0-1.91,1,2.92,2.92,0,0,0-.21,2l0,.17-.17.05-1.65.55a5,5,0,0,0-1.38.59,12.28,12.28,0,0,0-1.82,1.55c-.46.47-.79.84-1,1.09s-.34.39-.35.37a1.77,1.77,0,0,1,.28-.43c.2-.27.51-.66.95-1.16a11.73,11.73,0,0,1,1.81-1.65,5.22,5.22,0,0,1,1.43-.66l1.66-.6-.12.22a3.2,3.2,0,0,1,.19-2.26,2.74,2.74,0,0,1,2.23-1.27h.09l.07.06a4.57,4.57,0,0,0,1.64.88c.51.11,1.49-.06,2.1.61a2.31,2.31,0,0,1,.55,1.09c.08.37.17.74.24,1.12a16.33,16.33,0,0,1,.29,2.37,5.13,5.13,0,0,1-.46,2.54c-.46.78-1,1.4-1.42,2.14a7,7,0,0,0-.59,5.06v.07l0,.07a13.21,13.21,0,0,1-2.19,4.83,4.92,4.92,0,0,1-1,1,8.89,8.89,0,0,1-1.27.64,7.6,7.6,0,0,1-2.81.71l.29-.12a7.71,7.71,0,0,1-3.07,2.29,2.69,2.69,0,0,1-1.06.12c-.38,0-.63-.1-.95-.15l-1.85-.32.33-.15a3.21,3.21,0,0,1-1.74,1.19,4.59,4.59,0,0,1-3.35-.59l.37,0a3.89,3.89,0,0,1-3.34.49,2.82,2.82,0,0,1-.8-.39c-.22-.17-.43-.35-.62-.53-.39-.36-.76-.74-1.11-1.13a14.09,14.09,0,0,1-3.19-5.23,13.1,13.1,0,0,1-.24-2.95,16.74,16.74,0,0,1,.16-2.84,4,4,0,0,1,1.26-2.58,1.77,1.77,0,0,1,1.5-.29,3.17,3.17,0,0,1,1.25.68l-.49.18a11.12,11.12,0,0,1,1.09-3.52,3.85,3.85,0,0,1,1.21-1.35,2.6,2.6,0,0,1,1.72-.54l-.31.28a5.56,5.56,0,0,1,.26-2.16,2.86,2.86,0,0,1,1.3-1.65,3,3,0,0,1,2-.3,2,2,0,0,1,1.47,1.15,7.55,7.55,0,0,1,.5,3.14c0,1,.06,1.83.08,2.6l-.27-.05a2.64,2.64,0,0,1,1.52-1.37,2.28,2.28,0,0,1,1.48.12A3.44,3.44,0,0,1,497.85,208.33Z" style="fill:#6f4439"></path><path d="M507.41,207.56c0,.08-.33.15-.83,0a3.29,3.29,0,0,1-1.72-1.06,3.41,3.41,0,0,1-.81-1.84c0-.52.07-.83.15-.83s.28,1.2,1.18,2.22S507.45,207.37,507.41,207.56Z" style="fill:#6f4439"></path><path d="M503.33,216.75c-.19.07-1-2.06-2.51-4.4s-3.12-3.92-3-4.07,2,1.26,3.56,3.7S503.5,216.7,503.33,216.75Z" style="fill:#6f4439"></path><path d="M494,208.28c.11,0-.06.87.23,2.19a17.5,17.5,0,0,0,2.18,4.84,18.76,18.76,0,0,1,1.31,2.73,22.09,22.09,0,0,1,.61,2.38,3.14,3.14,0,0,0,1.16,1.73s-.25,0-.6-.18a2.76,2.76,0,0,1-1-1.4c-.26-.69-.39-1.48-.74-2.3a22.28,22.28,0,0,0-1.32-2.63,14.27,14.27,0,0,1-2.06-5.09A3.42,3.42,0,0,1,494,208.28Z" style="fill:#6f4439"></path><path d="M492.53,220.68a6.11,6.11,0,0,1-1.83-1.5,7.33,7.33,0,0,1-1.47-2.17,10.36,10.36,0,0,1-.63-3.12c-.42-4.43.08-8,.26-8s0,3.57.42,7.93a11.07,11.07,0,0,0,.54,2.95,7.8,7.8,0,0,0,1.25,2.08C492,220,492.61,220.6,492.53,220.68Z" style="fill:#6f4439"></path><path d="M487.48,221.52c-.1,0-.39-.52-1.11-1.29a12.46,12.46,0,0,1-1.21-1.45,4.75,4.75,0,0,1-.79-2.28,17.75,17.75,0,0,1,.43-4.18,8.73,8.73,0,0,1,.27-1.69,3.13,3.13,0,0,1,.22,1.74,31.34,31.34,0,0,0-.23,4.07,6.38,6.38,0,0,0,1.69,3.49C487.4,220.8,487.57,221.5,487.48,221.52Z" style="fill:#6f4439"></path><path d="M474.4,141.16a4.53,4.53,0,0,0,1.61-.8,2.75,2.75,0,0,0,.9-1.6,2.64,2.64,0,0,0-.66-2.09,2.47,2.47,0,0,0-1.15-.77h.17a37.42,37.42,0,0,0-4.19,2.33,10,10,0,0,1,4-2.8l.09,0,.09,0a3.07,3.07,0,0,1,1.39.91,2.9,2.9,0,0,1-.4,4.33A2.12,2.12,0,0,1,474.4,141.16Z" style="fill:#263238"></path></g><g id="freepik--character-2--inject-2"><path d="M279.68,95.6l1.19-.07c11.89-.66,22.31,7.66,23.95,19.13,1.52,10.67,3.06,22.46,3.33,28.21.55,11.91-11.59,14.45-11.59,14.45l.44,4.84c.72,8-3.36,19.68-11.59,20.34l-2.84-1.66c-8.13.65-14.47-8.15-15.24-16L263,120.62C261.15,108.32,267,97,279.68,95.6Z" style="fill:#ffbf9d"></path><path d="M296.66,157.3a30.51,30.51,0,0,1-16.31-3.67s4.28,8.35,16.43,6.6Z" style="fill:#ff9a6c"></path><path d="M301.39,125.72a1.72,1.72,0,0,1-1.59,1.81,1.67,1.67,0,0,1-1.89-1.43,1.71,1.71,0,0,1,1.58-1.81A1.67,1.67,0,0,1,301.39,125.72Z" style="fill:#263238"></path><path d="M302.53,120.63c-.21.23-1.59-.65-3.47-.54s-3.21,1.1-3.42.89.09-.51.66-1a4.89,4.89,0,0,1,2.73-1,4.68,4.68,0,0,1,2.77.7C302.41,120.13,302.63,120.52,302.53,120.63Z" style="fill:#263238"></path><path d="M285.12,126.84a1.72,1.72,0,0,1-1.59,1.81,1.65,1.65,0,0,1-1.89-1.43,1.72,1.72,0,0,1,1.58-1.81A1.68,1.68,0,0,1,285.12,126.84Z" style="fill:#263238"></path><path d="M284.05,122c-.2.23-1.58-.64-3.46-.53s-3.21,1.1-3.43.89.09-.51.67-1a4.93,4.93,0,0,1,2.72-1,4.76,4.76,0,0,1,2.78.71C283.93,121.51,284.15,121.9,284.05,122Z" style="fill:#263238"></path><path d="M291.68,135.18a13.36,13.36,0,0,1,3-.7c.47-.08.92-.2,1-.52a2.35,2.35,0,0,0-.41-1.37l-1.63-3.47c-2.27-5-3.94-9-3.74-9.13s2.22,3.86,4.49,8.81l1.57,3.5a2.69,2.69,0,0,1,.36,1.82,1.2,1.2,0,0,1-.75.73,3.4,3.4,0,0,1-.81.16A12.36,12.36,0,0,1,291.68,135.18Z" style="fill:#263238"></path><path d="M284.11,114.81c-.15.5-2.05.37-4.24.76s-3.94,1.06-4.26.63c-.14-.2.14-.69.83-1.21a7.64,7.64,0,0,1,6.48-1.06C283.75,114.2,284.18,114.57,284.11,114.81Z" style="fill:#263238"></path><path d="M301.52,115.37c-.3.44-1.63.08-3.19.14s-2.86.44-3.19,0c-.14-.21,0-.64.59-1.06a4.56,4.56,0,0,1,2.55-.83,4.48,4.48,0,0,1,2.59.7C301.45,114.74,301.66,115.16,301.52,115.37Z" style="fill:#263238"></path><path d="M303.31,109.26s-3.67-7.27-7.47-8.8c-4.6-1.86-6.24,3-10.58,2.11s-8.72-2.71-12.89.74c-4.57,3.78-2.19,6.11-2.17,11.41.07,21.48-3.59,27.76-5.33,17.74-.19-1.1-3.4-1.8-4.14-6.45-1-6-1.64-13.35-.5-17.72.95-3.69,2.93-6.31,6.57-9.28,5.76-4.69,14-5.25,19.65-5S303.27,99.9,303.31,109.26Z" style="fill:#263238"></path><path d="M265.63,132.09a3.31,3.31,0,0,0-3.77-2.91c-2.27.34-4.74,1.74-4.32,6.32.75,8.12,9,5.71,9,5.48S266,135.49,265.63,132.09Z" style="fill:#ffbf9d"></path><path d="M264.42,138.08s-.14.11-.37.24a1.5,1.5,0,0,1-1.09.12c-.91-.24-1.78-1.54-2-3a4.65,4.65,0,0,1,.22-2.06,1.7,1.7,0,0,1,1-1.18.74.74,0,0,1,.89.31c.14.22.1.39.14.4s.17-.15.07-.48A.9.9,0,0,0,263,132a1.15,1.15,0,0,0-.83-.14,2,2,0,0,0-1.4,1.39,4.73,4.73,0,0,0-.3,2.31c.21,1.63,1.21,3.09,2.45,3.32a1.56,1.56,0,0,0,1.31-.33C264.42,138.28,264.45,138.09,264.42,138.08Z" style="fill:#ff9a6c"></path><path d="M305.09,100.46c-1.29-.94-3.06-1.08-4.33-2-2.33-1.73-2.43-5.67-5.16-6.7-1.62-.61-3.44.14-5.16,0-2.8-.29-3.88-2.34-8.12-2.35-5.51,0-7.28,4-7.28,4a6.54,6.54,0,0,0-6.35.58A6.78,6.78,0,0,0,266,98.84s-.87-.43-3.52,1.6c-1.68,1.3-3.06,4.08-3.67,6.08-.91,3,.42,6.12,1.73,9,.7,1.53,1.58,3.22,3.22,3.76,2,.65,4.19-.86,5-2.77s2-3.82,3-5.65c1.65-3.18,3.33-6.14,1.95-8.18a9.86,9.86,0,0,1,5.89,0c1.91.61,3.59,1.81,5.5,2.47s4.32.61,5.61-.89a4.17,4.17,0,0,0,6.29,1.32,5.81,5.81,0,0,0,7.49,2.06C306.93,106.12,307.39,102.14,305.09,100.46Z" style="fill:#263238"></path><path d="M259.73,113.57a9.35,9.35,0,0,1,1,1.86,4,4,0,0,0,1.38,1.65,3.77,3.77,0,0,0,2.59.29,6.52,6.52,0,0,0,2.51-1,9.78,9.78,0,0,0,1.63-1.54,15,15,0,0,1,1.4-1.58,7,7,0,0,1-1.12,1.8,8.81,8.81,0,0,1-1.64,1.67,6.32,6.32,0,0,1-2.69,1.15,3.5,3.5,0,0,1-4.38-2.27A8.13,8.13,0,0,1,259.73,113.57Z" style="fill:#455a64"></path><path d="M260,119.85a7.54,7.54,0,0,0,1.66.89,4.72,4.72,0,0,0,2,.16,5.83,5.83,0,0,0,2.3-.85,11.1,11.1,0,0,0,3.14-3.22,9.28,9.28,0,0,1,1.14-1.54,6.1,6.1,0,0,1-.84,1.72,9.91,9.91,0,0,1-3.18,3.45,5.9,5.9,0,0,1-2.51.89,4.73,4.73,0,0,1-2.17-.29A2.64,2.64,0,0,1,260,119.85Z" style="fill:#455a64"></path><path d="M286.34,138.18a10,10,0,0,0-.47,2.73,3.05,3.05,0,0,0,.91,2.4,3.56,3.56,0,0,0,2.71,1.22h0a3.89,3.89,0,0,0,3.86-3.23l.33-2C291.74,138.76,286.49,138.31,286.34,138.18Z" style="fill:#ff9a6c"></path><path d="M291.49,144s-.25,0-.67.06a6,6,0,0,1-1.77,0,3.52,3.52,0,0,1-2.15-1.23,4.08,4.08,0,0,1-.85-2.85,4.2,4.2,0,0,1,.45-1.65l-.26.12c1.88.28,3.53.5,4.71.63a7.87,7.87,0,0,0,1.89.13,9.63,9.63,0,0,0-1.84-.44c-1.17-.22-2.8-.5-4.68-.8l-.18,0-.08.16a4.62,4.62,0,0,0,.48,5,3.75,3.75,0,0,0,2.46,1.27,4.89,4.89,0,0,0,1.86-.17A1.81,1.81,0,0,0,291.49,144Z" style="fill:#263238"></path><path d="M250.65,268.16l-27-23.11-3,29.52,53.1,39.09,18.37-2.37,14.66-6.57s30.62-41.67,30.62-44.51l-12.18,4.9Z" style="fill:#263238"></path><path d="M250.65,268.16c.56,1.65,41.91,41.27,41.91,41.27L268,336.55S220.23,295,212.09,288.63s-18.86-19.05-19.71-27.39,10.35-19.34,10.35-19.34,11,0,17.2,2S250.65,268.16,250.65,268.16Z" style="fill:#263238"></path><path d="M239.32,330.24c.63-3.38,1.31-6.86,3.16-9.76s5.18-5.13,8.59-4.65c2.27.32,4.24,1.76,6.47,2.28s4.46.13,6.71.1,6.08,0,7.49,1.71l16.72,11.42c-5.15,3.63-13.94,4-20.18,4.89s-12.61,1.3-18.55,3.41c-2.58.92-5.48,2.14-7.93.9a6,6,0,0,1-2.94-4.63A17.81,17.81,0,0,1,239.32,330.24Z" style="fill:#455a64"></path><path d="M241,339.67a3.74,3.74,0,0,1-.06-1c0-.64,0-1.58,0-2.73a37.82,37.82,0,0,1,1.27-8.94,18.83,18.83,0,0,1,4.39-7.87,12.64,12.64,0,0,1,2.12-1.76,3.65,3.65,0,0,1,.88-.48,30.47,30.47,0,0,0-2.73,2.49,20,20,0,0,0-4.16,7.77,44.44,44.44,0,0,0-1.4,8.81A28.82,28.82,0,0,1,241,339.67Z" style="fill:#263238"></path><path d="M255.33,336.86c-.16,0,.7-2.91,1.18-6.54s.45-6.62.6-6.62a6.28,6.28,0,0,1,.2,2,30.61,30.61,0,0,1-.28,4.73,31,31,0,0,1-1,4.64A6.34,6.34,0,0,1,255.33,336.86Z" style="fill:#263238"></path><path d="M261.24,334.26c-.15-.07.81-2.08,1.25-4.76s.22-4.89.38-4.91a13,13,0,0,1-1.63,9.67Z" style="fill:#263238"></path><path d="M266.65,329.74s.37-.23,1-.67a8.88,8.88,0,0,0,2.25-2.27,8.14,8.14,0,0,0,.55-.91,4.22,4.22,0,0,0,.4-1,.55.55,0,0,0-.42-.71,1.94,1.94,0,0,0-1.15.2,4,4,0,0,0-1.91,1.83A4.27,4.27,0,0,0,267,329a5.38,5.38,0,0,0,3.7,3.95,4.15,4.15,0,0,0,1.21.25c.35,0,.38-.26.14-.55a13.07,13.07,0,0,0-1.75-1.31,35.5,35.5,0,0,0-4-2.05,4.24,4.24,0,0,1,1.16.32,16.43,16.43,0,0,1,3,1.42,12.35,12.35,0,0,1,1.89,1.34.91.91,0,0,1,.26.76.74.74,0,0,1-.68.52,4,4,0,0,1-1.4-.24,6.38,6.38,0,0,1-2.55-1.51,5.5,5.5,0,0,1-1.52-2.8,4.82,4.82,0,0,1,.42-3.16,4.53,4.53,0,0,1,2.18-2,2.31,2.31,0,0,1,1.45-.2,1,1,0,0,1,.64.47,1.12,1.12,0,0,1,.1.75,4.25,4.25,0,0,1-.48,1.14,7.21,7.21,0,0,1-.6.94,8.23,8.23,0,0,1-2.44,2.23A3.19,3.19,0,0,1,266.65,329.74Z" style="fill:#263238"></path><path d="M278.86,304.25s48.78-36.95,56.73-43.45,28-19.59,35.89-2.76-2.62,22.33-7.14,30.45-32.15,31.14-43.09,38.35c-8.83,5.82-24.88,5.82-24.88,5.82l-11.17,7.73L265.26,315.2Z" style="fill:#263238"></path><path d="M321.25,319.34c3.23-2.36,5.64-4,8.1-3s4.13,3.35,5.33,5.73a58.2,58.2,0,0,1,3.53,9.92c.88,3.05,1.62,6.73-.52,9.07a6.32,6.32,0,0,1-5.74,1.62,18.47,18.47,0,0,1-5.73-2.36c-5.45-3-17.36-7.69-22.81-10.69Z" style="fill:#455a64"></path><path d="M328.34,318.17s.26.25.65.76.92,1.28,1.53,2.26a40.62,40.62,0,0,1,3.82,8.14,42,42,0,0,1,1.32,4.79,21.57,21.57,0,0,1,.55,4,6,6,0,0,1-.52,2.71,2.08,2.08,0,0,1-.58.83,6.51,6.51,0,0,0,.73-3.53,24,24,0,0,0-.65-3.93c-.34-1.47-.78-3.07-1.34-4.72a49.33,49.33,0,0,0-3.65-8.13C329.07,319.39,328.27,318.21,328.34,318.17Z" style="fill:#263238"></path><path d="M320.34,333.53a11.42,11.42,0,0,1,0-9.61,40.2,40.2,0,0,0-.52,4.81A39.54,39.54,0,0,0,320.34,333.53Z" style="fill:#263238"></path><path d="M314,331.2a3.34,3.34,0,0,1-1.14-2.28,3.43,3.43,0,0,1,.3-2.55c.15,0,0,1.14.21,2.46S314.11,331.12,314,331.2Z" style="fill:#263238"></path><path d="M331.78,263.83l-.32.27-1,.76-3.72,2.93-13.9,10.84L265.41,315.4l0-.36,14,17.64,6,7.55-.36-.05,9.77-7.15h0l0,0a146.69,146.69,0,0,0,15.76-7.62c4.93-2.72,9.52-5.54,13.76-8.39a138,138,0,0,0,11.51-8.67c3.49-2.84,6.72-5.47,9.63-7.9,5.82-4.84,10.35-8.87,13.4-11.71,1.53-1.42,2.69-2.53,3.47-3.29l.9-.85.31-.28s-.09.11-.28.31l-.86.89c-.77.78-1.91,1.91-3.42,3.35-3,2.89-7.52,7-13.31,11.84-2.9,2.44-6.11,5.09-9.59,7.95a137,137,0,0,1-11.51,8.72c-4.24,2.87-8.84,5.72-13.77,8.45a147.77,147.77,0,0,1-15.81,7.68l.05,0-9.76,7.15-.2.14-.16-.19c-2-2.49-4-5-6-7.55l-14-17.65-.16-.2.2-.15,47.58-36.63,14-10.72,3.77-2.86,1-.73A3.46,3.46,0,0,1,331.78,263.83Z" style="fill:#455a64"></path><path d="M246.51,267.34c.1-.1,7.9,6.61,17.42,15s17.18,15.28,17.08,15.39-7.89-6.61-17.42-15S246.42,267.45,246.51,267.34Z" style="fill:#455a64"></path><path d="M367.08,202.47c-.28-.17-4.91-5-3-11.29s4.9-9.92,6.55-12.39,3.85-9.42,5.34-9,2.81,1.62,2.74,4.12-4,7.26-2.56,9.71a2.2,2.2,0,0,0,3,.76s8.78-4.75,12.12-7.27,7-3.86,7.57-2.55.37,2.38-2.4,4.46-7.65,4.89-7.46,5.7,1.45.61,3.08-.58,9.69-6.25,10.83-5.7a2.08,2.08,0,0,1,.73,3.17l-1.45,1.84s2.09.8,1.73,2.21-2.64,2.42-2.64,2.42l-10.88,6.4s-.19,1,.4,1.25,8.56-5.6,9.22-4.75,1.66.81-.44,3-8.4,6.11-11.06,6.93-12.39,6.35-12.39,6.35Z" style="fill:#ffbf9d"></path><path d="M386.77,191.74c.1.19,3.75-1.33,8-3.62s7.55-4.49,7.44-4.67-3.57,1.69-7.84,4S386.67,191.54,386.77,191.74Z" style="fill:#ff9a6c"></path><path d="M378.39,195c.05.06.81-.47,1.4-1.78a6.2,6.2,0,0,0-.25-5.4,15.71,15.71,0,0,0-1.83-2.39,8.52,8.52,0,0,1-1.29-1.9,7.14,7.14,0,0,1-.49-2c-.08-.06-.54.85-.05,2.24a7.55,7.55,0,0,0,1.25,2.15,21.52,21.52,0,0,1,1.7,2.31,6.28,6.28,0,0,1,.42,4.84C378.85,194.28,378.28,194.92,378.39,195Z" style="fill:#ff9a6c"></path><path d="M351.77,219l12.55-22,11.9,11.15s-8.8,25.79-13.55,33.24-10.11,10.14-10.11,10.14-9.37-4.48-13.51-10.07-15-24.58-15-24.58l15.4-15.73Z" style="fill:#ffbf9d"></path><path d="M351.14,229.58a18.22,18.22,0,0,1-.23-5.76,18.44,18.44,0,0,1,1.1-5.66c.15,0-.35,2.55-.58,5.7S351.29,229.57,351.14,229.58Z" style="fill:#ff9a6c"></path><path d="M345.73,206.85s-9.86-20.41-15-29.06-24.07-10.11-24.07-10.11l10.65,48.22,5.42,5.63Z" style="fill:#5F8E4D"></path><path d="M325.38,197a20.85,20.85,0,0,1-.51,4.4c-.48,2.8-1.1,6.46-1.79,10.51s-1.29,7.7-1.77,10.51c-.2,1.26-.37,2.33-.51,3.19a5.79,5.79,0,0,1-.25,1.16,4.68,4.68,0,0,1,.05-1.19c.06-.76.18-1.86.35-3.21.34-2.71.91-6.44,1.62-10.55s1.41-7.81,1.94-10.49l.63-3.17A11.19,11.19,0,0,1,325.38,197Z" style="fill:#263238"></path><path d="M327.5,189.13c-.15,0,.45-2.95.66-6.61s0-6.63.13-6.65a6.2,6.2,0,0,1,.33,1.94,32.55,32.55,0,0,1,.06,4.74,33,33,0,0,1-.62,4.7A6.34,6.34,0,0,1,327.5,189.13Z" style="fill:#263238"></path><path d="M317.29,169.6s6.83,33.25,3.88,46.17l-1.76,31.31s5.41,15.84,4.63,18.08-21.3,21.28-38.86,20.16-30-12.71-31.52-13.83-8.18-5.32-8.18-5.32l1.11-13.94-1.3-45.88-3.15-34.69,20.51-5,4.25-6.18,23,19.31,7.58-19.31L300,166Z" style="fill:#5F8E4D"></path><path d="M264.57,251.67a16.35,16.35,0,0,0,2.28.84,11.59,11.59,0,0,0,6.51-.51,30.69,30.69,0,0,0,8.56-4.85,93.38,93.38,0,0,0,23.24-24.82c1.53-2.37,2.66-4.36,3.44-5.74l.88-1.59a2.86,2.86,0,0,1,.34-.54,3.43,3.43,0,0,1-.25.59l-.79,1.64c-.72,1.41-1.81,3.43-3.31,5.84a89.2,89.2,0,0,1-23.27,25,30.24,30.24,0,0,1-8.72,4.81,11.47,11.47,0,0,1-6.68.36,6.09,6.09,0,0,1-1-.35,4,4,0,0,1-.69-.35A3.06,3.06,0,0,1,264.57,251.67Z" style="fill:#263238"></path><path d="M289.21,182.54s-.21-.18-.54-.57l-1.39-1.71.23,0c-.78,1.49-1.78,3.51-3.16,5.95a1.44,1.44,0,0,1-1,.62,1.93,1.93,0,0,1-1.16-.36,16.88,16.88,0,0,1-1.73-1.53l-3.52-3.35c-3.79-3.61-7.19-6.9-9.64-9.29l-2.88-2.87a6.87,6.87,0,0,1-1-1.1,9.92,9.92,0,0,1,1.15,1l3,2.74c2.51,2.33,6,5.58,9.75,9.19l3.51,3.36a18.14,18.14,0,0,0,1.64,1.49,1,1,0,0,0,1.56-.13c1.35-2.31,2.46-4.39,3.29-5.81l.11-.19.12.17,1.29,1.79A3.75,3.75,0,0,1,289.21,182.54Z" style="fill:#263238"></path><path d="M300.42,167.64a4.28,4.28,0,0,1,0,1.11c-.06.7-.15,1.73-.37,3a41.65,41.65,0,0,1-2.79,9.53c-.52,1.22-1.09,2.38-1.66,3.44l-.27.52-.18-.55c-.94-2.79-1.73-5.2-2.27-6.9l.29,0a18.94,18.94,0,0,1-1.54,2.53,21.14,21.14,0,0,1,1.26-2.68l.17-.32.12.34c.62,1.68,1.47,4.07,2.44,6.85l-.46,0c.55-1.06,1.1-2.21,1.62-3.41a48.68,48.68,0,0,0,2.91-9.4C300.18,169.19,300.34,167.63,300.42,167.64Z" style="fill:#263238"></path><path d="M239.56,210.1l-15.62,19.79s3.11,6.52,3.88,8.6,13.78,22.66,13.78,22.66l-12.76,6.52s-20.3-18.49-26.8-26.05a17.66,17.66,0,0,1-3.95-14.87c1-4.95,23.62-32.15,23.62-32.15l14.53,1.69Z" style="fill:#ffbf9d"></path><path d="M241.6,261.15s7.9,19.84,8.65,22.14,1.25,16.46.62,18.76-4.12,9.06-5.62,9.57-2.64,1.28-1.75-2.56a36,36,0,0,1,2.12-6.5l.25-7.66s-1.8,6-3.12,6.77-5.25-.64-5.25-.64v-1.28s-3.5.51-4-.76.45-3.66.45-3.66S232,299.24,230,298s-.38-2,0-4.6a29.11,29.11,0,0,0,0-9.05c-.58-3.29-1.5-5.62-1.88-7.78s.72-8.87.72-8.87l7.16-7.46Z" style="fill:#ffbf9d"></path><path d="M215.57,199.05s16.45-20.2,20.56-24.48,10.67-2.81,11.26-2.81,7.49,11,6.31,21.74A25.7,25.7,0,0,1,245.39,210l-10,12.48Z" style="fill:#5F8E4D"></path><path d="M239.93,291.61a22.35,22.35,0,0,1-2.55,9.28,43.62,43.62,0,0,1,1.28-4.64A43.44,43.44,0,0,1,239.93,291.61Z" style="fill:#ff9a6c"></path><path d="M234.76,289.19a12.71,12.71,0,0,1-1.61,8.21c-.14-.06.55-1.81,1-4.07S234.61,289.19,234.76,289.19Z" style="fill:#ff9a6c"></path><path d="M247.42,206a10.9,10.9,0,0,1,.65-1.38c.45-.88,1.1-2.15,1.83-3.75a33.1,33.1,0,0,0,3.43-13.14,18.8,18.8,0,0,0-1.3-7.32,14.56,14.56,0,0,0-8.05-8.15s.14,0,.39.09a7.91,7.91,0,0,1,1.08.39,12.52,12.52,0,0,1,3.49,2.35,15.26,15.26,0,0,1,3.53,5.14,18.83,18.83,0,0,1,1.38,7.51,31.61,31.61,0,0,1-3.61,13.29c-.79,1.58-1.49,2.83-2,3.68A8,8,0,0,1,247.42,206Z" style="fill:#263238"></path><path d="M218.17,219.81a8.17,8.17,0,0,1,1.65,1.64,24.82,24.82,0,0,1,5.07,9.94,7.28,7.28,0,0,1,.35,2.3,52.5,52.5,0,0,0-2.79-7.32A54.5,54.5,0,0,0,218.17,219.81Z" style="fill:#ff9a6c"></path></g><g id="freepik--character-3--inject-2"><path d="M431.64,246.81a8,8,0,0,1-8.48,8.49c-.25,0-.49-.06-.74-.11-2.71-.5-5-2.29-7.14-4L403,241.34a27.86,27.86,0,0,1-5.23-5,9.33,9.33,0,0,1-2-6.8l.68-.17a12.77,12.77,0,0,1,10.44-6.23,16.62,16.62,0,0,1,11.6,4.32c2.2,1.95,3.93,4.37,6.15,6.31,0,0,4.25.49,5.7,4.4A35.65,35.65,0,0,1,431.64,246.81Z" style="fill:#263238"></path><path d="M398.36,230.22a13.56,13.56,0,0,0-5.72-2.83,8,8,0,0,0-6.15,1.18c-1.63,1.17-2.62,3-3.76,4.63s-2.56,3.65-4.54,3.93a1.9,1.9,0,0,0-1,.37c-.45.43-.2.8.36,1.06a2.94,2.94,0,0,0,1.83,0,6.52,6.52,0,0,1-3.85,2.17,2.82,2.82,0,0,0,3.46,2,28.83,28.83,0,0,0-1.14,7.06,9.77,9.77,0,0,0,2.31,6.61c1.78,1.93,4.69,3,5.48,5.53" style="fill:#263238"></path><path d="M415.6,314.5l-32-.42,3.57-27.22s-2.19-.46-2.33-12.31-.69-32-.69-32h0a41.13,41.13,0,0,1,41.35,5.2l1.76,1.35Z" style="fill:#ffbf9d"></path><path d="M423.58,263.7c.2-.08,8.14-2.4,7.88,5.69s-8.34,6.17-8.34,5.94S423.58,263.7,423.58,263.7Z" style="fill:#ffbf9d"></path><path d="M385.55,262c-.2-.08-7.42-2-7.16,6.07s8.33,6.16,8.34,5.93S385.55,262,385.55,262Z" style="fill:#ffbf9d"></path><path d="M426.2,262.8c-1.21,6.78-1,10.35-2.09,14.88-1.77,7.17-5.33,12.67-11.79,16.25s-15.2,3.52-20.75-1.36c-3.85-3.38-6.58-7.2-7.15-12.3s-2.07-14.66-2.11-19.79c-.06-9.24.25-17.53.25-17.53L409,238.17l15,8.94Z" style="fill:#263238"></path><path d="M399,298c0,.19,2,.7,4.63.41S408.1,297.2,408,297s-2,.41-4.51.67S399,297.81,399,298Z" style="fill:#263238"></path><path d="M424.93,274.33c.77-6.95,1.27-14.9,2.36-22.23.41-2.75,1.39-6.72,1.14-9.49s-1-1.93-2.23-4.44c-1.53-3.15-7.4-5.24-10.84-5.93s-3.85-3.66-6.49-1.35a8.57,8.57,0,0,0-15.63,3.61,6,6,0,0,0-9.82,6,5.82,5.82,0,0,0-3.93,8.91c1.22,1.88,3.43,2.92,4.78,4.72a6.77,6.77,0,0,1,.41,7.31" style="fill:#263238"></path><path d="M390.9,272.89c-.18-.05-.54,3.31.91,7.11s3.92,6.09,4,5.94-2-2.55-3.33-6.2S391.13,272.88,390.9,272.89Z" style="fill:#455a64"></path><path d="M387.35,267c-.16-.08-1.19,2.8-.51,6.41s2.62,5.95,2.74,5.82-1.42-2.53-2-5.95S387.58,267,387.35,267Z" style="fill:#455a64"></path><path d="M420.61,239a18.09,18.09,0,0,0-8.24-7.37c-3.48-1.39-7.76-1.1-10.61,1.33" style="fill:#263238"></path><path d="M420,256.91a6.6,6.6,0,0,1,.26-2.39,31.15,31.15,0,0,0,.61-5.61,12.57,12.57,0,0,0-1.21-5.37c-.64-1.27-1.28-1.93-1.17-2s.9.42,1.74,1.71a10.85,10.85,0,0,1,1.58,5.69,19.9,19.9,0,0,1-.91,5.77C420.42,256.1,420.07,256.94,420,256.91Z" style="fill:#455a64"></path><path d="M414.49,259.59c-.24-.13.42-1.73,1.05-3.74s1-3.7,1.3-3.67.27,1.84-.41,3.95S414.7,259.72,414.49,259.59Z" style="fill:#455a64"></path><path d="M389.12,257.51a6.88,6.88,0,0,1-1.81-2.89,14.3,14.3,0,0,1,3.09-15.5c1.52-1.51,2.74-2.07,2.79-2s-1,.87-2.3,2.43a15.21,15.21,0,0,0-3,14.82C388.56,256.33,389.25,257.43,389.12,257.51Z" style="fill:#455a64"></path><path d="M418,227.39a12,12,0,0,1-2.61-1.1,15.3,15.3,0,0,0-6.36-1.56,7.69,7.69,0,0,0-5.78,2.43,18.06,18.06,0,0,0-1.48,2.31c-.1,0-.13-1.22,1-2.73a7.06,7.06,0,0,1,2.46-2.06,8.69,8.69,0,0,1,3.81-.89,13.34,13.34,0,0,1,6.68,1.91C417.22,226.58,418.05,227.28,418,227.39Z" style="fill:#455a64"></path><path d="M381.88,234.89c-.1,0,.09-.94.94-2.14a8.73,8.73,0,0,1,10.29-3c1.36.56,2,1.22,1.94,1.3s-.84-.31-2.15-.67a9.3,9.3,0,0,0-9.57,2.78C382.42,234.17,382,235,381.88,234.89Z" style="fill:#455a64"></path><path d="M390.59,264.65c0-.11,1.3-.47,3.43-1.42a27.53,27.53,0,0,0,7.82-5.29l1.53-1.48-.84,2a17.68,17.68,0,0,0-1.14,3.84c-.13.67-.24,1.51,0,1.62s.91-.16,1.51-.58a24.55,24.55,0,0,0,5.44-4.81l1.4-1.68-.64,2.09c-.64,2.09-1.24,4-1.78,5.8l-.61-.37c3.71-3.51,5-6.64,5.17-6.52a6.7,6.7,0,0,1-.91,2.11,21.9,21.9,0,0,1-3.75,4.94l-1,1,.38-1.35,1.64-5.84.77.4a24.1,24.1,0,0,1-5.61,5,7.86,7.86,0,0,1-1.05.6,1.53,1.53,0,0,1-1.53-.06,1.6,1.6,0,0,1-.52-1.4,9,9,0,0,1,.17-1.13,17.4,17.4,0,0,1,1.25-4l.7.49a25.22,25.22,0,0,1-8.22,5.14A11,11,0,0,1,390.59,264.65Z" style="fill:#455a64"></path><path d="M406,233.43a4.12,4.12,0,0,0-2.56-2,7.12,7.12,0,0,0-3.28-.08,11.75,11.75,0,0,0-6.89,4c-.4.48-.75,1.21-.33,1.66a1.36,1.36,0,0,0,.91.31,50.79,50.79,0,0,0,11.94-.42" style="fill:#263238"></path><path d="M338.63,385s-24.26-13.9-32.33-13.45c-7.36.42-15.17,2.67-18.59,8.82s-2.64,15.46,1.31,21.07,43.64,37.33,44.17,38.64,15.69,19.3,46.55,19.45c30.64.15,47.77.36,50.4-3.59s4.34-46.62,4.34-46.62Z" style="fill:#455a64"></path><path d="M481.5,356.63c-5.16-4.78-13.29-4.49-20.41-2.59-7.81,2.07-26.55,22.82-26.55,22.82l-8.07,81.08c15.95-5.26,24.9-26.48,28.48-32.11.76-1.2,29.84-42.2,31.85-48.76S486.66,361.42,481.5,356.63Z" style="fill:#455a64"></path><path d="M335.6,352.22s.2-26.42,5.56-35.17,9.14-10.92,17.09-11.92,27.42-2,27.42-2l34.77,2.38s29-.43,29,7.15c0,1.39-10.71,35.86-10.71,100.53,0,.63,5.35,2.36,2.14,9.65-4.51,10.24-19.77,30.62-46.72,30.62-22.06,0-46.43-10.66-48.42-26.16s5.38-60.6,5.38-60.6v-15.1Z" style="fill:#5F8E4D"></path><path d="M446.41,309s10.19,3,12.78,13.93,8.18,34.89,8.18,34.89l-28.71,2.39s-1.6-18.12-1.2-25.6S444.2,310.44,446.41,309Z" style="fill:#5F8E4D"></path><path d="M359.85,380.24a2,2,0,0,1-.21-.59c-.13-.48-.28-1-.47-1.74-.39-1.51-.93-3.71-1.57-6.43-1.27-5.43-3-13-4.62-21.33s-3-16-3.74-21.51c-.38-2.76-.62-5-.76-6.57-.05-.72-.09-1.31-.12-1.8a1.8,1.8,0,0,1,0-.63,2.91,2.91,0,0,1,.13.62c.07.48.15,1.07.24,1.78.22,1.55.54,3.78,1,6.53.87,5.51,2.27,13.1,3.93,21.45s3.26,15.9,4.42,21.36c.56,2.65,1,4.84,1.36,6.47.14.7.25,1.28.34,1.77A2.61,2.61,0,0,1,359.85,380.24Z" style="fill:#263238"></path><path d="M445.61,327.64a2,2,0,0,1,0,.65c-.06.49-.15,1.1-.24,1.83l-.95,6.75c-.76,5.71-1.66,13.61-2.39,22.36s-1.27,16.69-1.69,22.44c-.21,2.79-.39,5.09-.53,6.8-.07.73-.13,1.34-.18,1.84a2.17,2.17,0,0,1-.1.64,1.81,1.81,0,0,1,0-.65c0-.5,0-1.11.05-1.85.08-1.71.19-4,.31-6.81.3-5.76.75-13.7,1.49-22.47s1.71-16.67,2.6-22.36c.44-2.85.84-5.15,1.16-6.73.14-.73.27-1.33.37-1.82A2.4,2.4,0,0,1,445.61,327.64Z" style="fill:#263238"></path><path d="M391.63,430.55a9.88,9.88,0,0,1-2,0,15.65,15.65,0,0,1-2.29-.16,26.53,26.53,0,0,1-3-.44,30.77,30.77,0,0,1-3.59-.86,40.89,40.89,0,0,1-4-1.38A42.66,42.66,0,0,1,361,416.59a40.79,40.79,0,0,1-2.64-3.33,30.42,30.42,0,0,1-2-3.1,26.83,26.83,0,0,1-1.43-2.69,17.4,17.4,0,0,1-.91-2.11,9.77,9.77,0,0,1-.63-1.86c.14-.06,1,2.6,3.38,6.41a32.37,32.37,0,0,0,2,3c.75,1.08,1.7,2.12,2.66,3.24a43.8,43.8,0,0,0,15.55,11c1.38.53,2.67,1.07,3.94,1.42a32.67,32.67,0,0,0,3.53.93C388.83,430.44,391.64,430.4,391.63,430.55Z" style="fill:#263238"></path><g style="opacity:0.30000000000000004"><path d="M362.44,411.58q-3.07-6.9-6.17-13.81a4.82,4.82,0,0,0,3.9,1.56c1.52-11.49,2-20.19-2.95-30.65,2.27,20.06-5.76,40.38-14.51,57.49,2.69.11,6.19-5.37,7.38-7.79s3.5-5.11,6-4.16c2,.77,3.2,3.74,5.34,3.35a2.7,2.7,0,0,0,1.92-2.63A7.77,7.77,0,0,0,362.44,411.58Z"></path></g><path d="M361,405.35c-.14.13-2-1.82-3.69-4.71s-2.63-5.35-2.48-5.43,1.45,2.26,3.07,5.09S361.11,405.22,361,405.35Z" style="fill:#263238"></path><path d="M438.73,415.08a2.81,2.81,0,0,1-.28.76c-.22.49-.49,1.23-1,2.13a46.52,46.52,0,0,1-4.5,7.29,49.22,49.22,0,0,1-8.84,9.14,49.6,49.6,0,0,1-41.46,9.71,46.32,46.32,0,0,1-8.18-2.55c-.95-.37-1.64-.75-2.12-1a3.84,3.84,0,0,1-.71-.39,4,4,0,0,1,.77.26c.5.18,1.2.53,2.16.85a51.71,51.71,0,0,0,20.73,3.25,48.88,48.88,0,0,0,28.42-10.64,51.14,51.14,0,0,0,8.85-8.95,52.25,52.25,0,0,0,4.65-7.13c.5-.87.81-1.59,1.07-2A3.45,3.45,0,0,1,438.73,415.08Z" style="fill:#263238"></path><path d="M440.16,362.91c0,.07-1.15-.58-3.33-1.28a26.67,26.67,0,0,0-9.59-1,50.43,50.43,0,0,0-14,3.2c-5.13,1.77-10.65,4.21-16.83,5.65a37.82,37.82,0,0,1-9.18,1.07,24.85,24.85,0,0,1-8.47-1.59c-5.16-2-9-5.19-12.39-7.56a60.08,60.08,0,0,0-8.19-5.25c-2.05-1-3.28-1.4-3.25-1.48a5,5,0,0,1,.89.26,21.79,21.79,0,0,1,2.48,1,55.13,55.13,0,0,1,8.35,5.1c3.38,2.33,7.29,5.41,12.33,7.36s11.22,1.9,17.28.45,11.61-3.83,16.78-5.58a49.39,49.39,0,0,1,14.17-3.09,25.69,25.69,0,0,1,9.69,1.26,18.35,18.35,0,0,1,2.45,1.06A5.39,5.39,0,0,1,440.16,362.91Z" style="fill:#fff"></path><path d="M338.55,352.15v27.51s-7,17.48-9.64,28-9.63,37.26-9.63,37.26l9.63,8.56s16.76-32.27,21-43a126.53,126.53,0,0,0,6.13-20.05A75.59,75.59,0,0,0,358,377.17c.1-6.06-4.67-25-4.67-25Z" style="fill:#ffbf9d"></path><path d="M281.06,458.92s9.5-9.83,10-9.72,15.33-2.7,15.33-2.7l10.48-.87,2.74-1,9.46,8.6s-1.19,4.54-3.89,5.29-14.25,1.3-14.25,1.3l-3.67-1-4.1.32s-6.38,3.24-7.67,3.24a6.69,6.69,0,0,1-2.7-.76s-.22-1.18,1.94-2.48l3.78-2.27-9.5,4.22-8-.22Z" style="fill:#ffbf9d"></path><path d="M310.36,453.77c0,.11-1.07.06-2.73.41a37,37,0,0,0-6.31,2,42.4,42.4,0,0,0-5.93,3c-1.45.89-2.25,1.58-2.32,1.51a7,7,0,0,1,2.05-1.91,30.25,30.25,0,0,1,5.94-3.22,27.55,27.55,0,0,1,6.49-1.88A5.88,5.88,0,0,1,310.36,453.77Z" style="fill:#ff9a6c"></path><path d="M305.09,449.94a16.58,16.58,0,0,1-3.56.82c-2.19.46-5.13,1.54-8.42,2.5l-.45.14.1,0c-2.64,2-4.95,3.93-6.64,5.27a19.06,19.06,0,0,1-2.81,2.1,17.25,17.25,0,0,1,2.5-2.46c1.62-1.44,3.87-3.41,6.54-5.45l0,0h.05l.45-.14a80.43,80.43,0,0,1,8.54-2.33A22.66,22.66,0,0,1,305.09,449.94Z" style="fill:#ff9a6c"></path><polygon points="442.15 359.64 451.9 403.43 486.1 456.64 494.04 447.24 471.92 393.55 466.29 357.8 442.15 359.64" style="fill:#ffbf9d"></polygon><path d="M525.44,457.78l-18.09-10.52L492,446.63l-5.88,9.79s1.81,2.49,7.24,2.72,10,0,10,0,7.91,3.84,9.49,2.71a8,8,0,0,1,3.17-1.36s5.65,3.36,6.55,1.57a6.78,6.78,0,0,1,2.94-2.7Z" style="fill:#ffbf9d"></path><path d="M500.17,454.45a7.39,7.39,0,0,1,2.4-.41,11.74,11.74,0,0,1,2.67.08,7,7,0,0,1,3.07,1.25c3.56,2.92,6.2,5.44,6.1,5.58s-3-2.18-6.49-5a9,9,0,0,0-5.34-1.41A10.56,10.56,0,0,1,500.17,454.45Z" style="fill:#ff9a6c"></path><path d="M502.23,450.46a2.38,2.38,0,0,1,1-.11,12.24,12.24,0,0,1,2.61.25,24.75,24.75,0,0,1,7.95,3.36c2.86,1.76,5.34,3.49,7.25,4.55s3.14,1.6,3.1,1.7a11,11,0,0,1-3.33-1.28c-2-1-4.54-2.65-7.37-4.39a29,29,0,0,0-7.7-3.48C503.6,450.53,502.23,450.58,502.23,450.46Z" style="fill:#ff9a6c"></path><g style="opacity:0.30000000000000004"><path d="M438.73,415.08a29.55,29.55,0,0,1-8.5,17c-7.7,7.54-14.53,12.26-25,14.74s-24.84,2-31.89-6.18c0,0,18.37,7.3,33.69,2.32C431.21,435.11,438.73,415.08,438.73,415.08Z"></path></g><path d="M384,231.67c-1.05,1.56-2,3.29-3.64,4.26a25.35,25.35,0,0,1-2.79,1.18,4,4,0,0,0-2.23,1.95,1.92,1.92,0,0,0,.93,2.53,3.24,3.24,0,0,0-1.93,3.28,4.36,4.36,0,0,0,2.21,3.26,6.84,6.84,0,0,0,4,.8l7.82-20.66C386.49,228.54,385.1,230.11,384,231.67Z" style="fill:#263238"></path></g></svg>
